<?xml version="1.0" encoding="UTF-8"?>
<svg id="Layer_2" xmlns="http://www.w3.org/2000/svg" viewBox="0 0 294.23 276.2">
  <defs>
    <style>
      .cls-1 {
        fill: #012e57;
      }

      .cls-2 {
        fill: #192c57;
      }

      .cls-3 {
        fill: #cbae2d;
      }
    </style>
  </defs>
  <g id="Layer_2-2" data-name="Layer_2">
    <g>
      <g>
        <path class="cls-3" d="M285.28,157.75c-6.28-2.99-14.56-5.14-24.2-6.32-7.84-.96-16.57-1.28-25.85-.86-7.02.3-14.35,1.01-21.85,2.17-15.26,2.37-29.12,6.25-40.47,11.01-11.39,4.77-20.27,10.43-25.54,16.32-.21.24-.42.49-.63.73-.81.93-1.49,1.86-2.07,2.79-.41-.65-.86-1.29-1.36-1.93-.46-.59-.96-1.17-1.51-1.75.03-.02,0-.02,0-.02-5.18-5.69-13.71-11.16-24.61-15.81-11.51-4.91-25.65-8.92-41.26-11.34-5.51-.84-10.93-1.46-16.22-1.85-9.49-.69-18.51-.65-26.69.04-9.24.79-17.42,2.43-24.04,4.79l8.4-20.71c3.57-.7,8.03-1.99,12.21-2.25,9.53-.53,15.97-.78,25.26.32,8.61,1.02,17.69,2.75,26.92,5.21,12.77,3.42,24.33,7.85,34.05,12.82-1.6-7.12-6.7-11.8-12.36-15.72-13.06-9.03-26.75-17.1-40.82-24.49-.3-.16-.41-.69-.62-1.05.36-1.47,1.65-1.45,2.58-1.22,11.45,2.85,23.19,4.37,34.72,6.88,9.38,2.05,19.7,3.21,29.65,1.88,3.93-.52,15.84-6.94,19.08-35.44l.33-26.85-23.97,2.39-.52-5.81,24.59-4.51.17-13.66,5.68-2.3.63,14.77,23.51-4.31,1.69,10.26-24.84,2.48,1.2,27.93c2.01,17.88,3.51,35.78.69,53.83-1.7,10.82-4.28,21.22-7.9,31.22,1.32-1.38,2.79-2.76,4.41-4.12,2.88-8.73,5.02-17.76,6.48-27.1,1.66-10.63,1.82-21.21,1.26-31.76,1.4,2.74,2.22,5.44,3.21,7.99,1.42,3.69,3.43,4.78,7.27,4.69,18.21-.39,36.43-.48,55.73-.69-4.97,4.26-10.42,4.98-15.15,7.06-10.7,4.7-21.56,9.13-32.59,12.95-7.14,2.48-8.99,7.49-8.99,14.02,0,.5.01,1,.03,1.5,10.04-5.29,22.18-10.03,35.66-13.64,11.57-3.09,22.93-5.03,33.41-5.86,9.18-.73,17.7-.62,25.12.3,4.18.51,8.02,1.27,11.43,2.28l8.69,22.74Z"/>
        <path class="cls-3" d="M104.26,98.53c0-7.75,6.27-14.03,14.02-14.03s14.02,6.28,14.02,14.03-6.28,14.02-14.02,14.02-14.02-6.28-14.02-14.02Z"/>
        <path class="cls-3" d="M182.57,88.31c6.3,0,11.41,5.11,11.41,11.42s-5.11,11.42-11.41,11.42-11.42-5.12-11.42-11.42,5.11-11.42,11.42-11.42Z"/>
      </g>
      <g>
        <path class="cls-3" d="M266.28,119.16c0,3.46-.15,6.87-.44,10.25-7.47-1.1-16.04-1.24-25.27-.35.3-3.04.45-6.14.45-9.27,0-51.72-41.92-93.63-93.63-93.63S53.77,68.07,53.77,119.78c0,3.4.18,6.75.54,10.05-9.34-1.32-18.13-1.66-25.97-1.06-.25-3.16-.38-6.38-.38-9.62C27.95,53.35,81.3,0,147.11,0s119.17,53.35,119.17,119.16Z"/>
        <path class="cls-2" d="M147.11,0C81.3,0,27.95,53.35,27.95,119.16c0,3.24.13,6.45.38,9.62,2.49-.19,5.08-.29,7.74-.29,5.74,0,11.85.45,18.23,1.35-.36-3.3-.54-6.65-.54-10.05,0-51.72,41.92-93.63,93.63-93.63s93.63,41.91,93.63,93.63c0,3.13-.15,6.23-.45,9.27,4.04-.39,7.96-.58,11.71-.58,4.81,0,9.36.32,13.56.93.29-3.38.44-6.79.44-10.25C266.28,53.35,212.92,0,147.11,0h0Z"/>
      </g>
      <g>
        <path class="cls-1" d="M108.52,177.47c-10.69-3.43-22.55-6.16-35.13-7.9-24.51-3.4-47.43-2.5-65.12,1.73l.63-1.76c17.88-5.88,43.97-6.49,71.84-.39,9.9,2.17,19.24,4.99,27.77,8.33Z"/>
        <path class="cls-1" d="M185.72,177.47c10.69-3.43,22.55-6.16,35.13-7.9,24.51-3.4,47.43-2.5,65.12,1.73l-.63-1.76c-17.88-5.88-43.97-6.49-71.84-.39-9.9,2.17-19.24,4.99-27.77,8.33Z"/>
      </g>
      <g>
        <path class="cls-2" d="M21.38,217.9h.28c1.89-2.05,9.99-10.32,11.6-12.21,1.55-1.83,2.77-3.22,2.77-4.16,0-.61-.22-1-.78-1.11-.5-.11-.72-.22-.72-.55,0-.39.28-.5.89-.5,1.17,0,4.22.17,5.71.17,1.72,0,4.77-.17,6.49-.17.56,0,.94.11.94.5s-.28.5-.83.5c-.78,0-2.16.22-3.22.61-1.72.67-3.61,1.83-5.99,4.16-1.72,1.66-10.1,9.99-11.98,11.98,2,2.61,12.87,14.31,15.04,16.37,2.44,2.33,4.94,4.83,7.93,5.99,1.66.67,2.77.83,3.44.83.39,0,.72.11.72.44,0,.39-.28.55-1.33.55h-4.83c-1.67,0-2.66,0-3.83-.11-3-.28-4.49-1.5-6.88-3.61-2.44-2.16-13.37-14.98-14.54-16.59l-.61-.83h-.28v5.05c0,5.1,0,9.49.17,11.87.11,1.55.61,2.77,2,3,.78.11,2,.22,2.72.22.44,0,.72.17.72.44,0,.39-.44.55-1.05.55-3.11,0-6.6-.17-7.99-.17-1.28,0-4.77.17-6.99.17-.72,0-1.11-.17-1.11-.55,0-.28.22-.44.89-.44.83,0,1.5-.11,2-.22,1.11-.22,1.39-1.44,1.61-3.05.28-2.33.28-6.71.28-11.82v-9.76c0-8.43,0-9.99-.11-11.76-.11-1.89-.55-2.77-2.39-3.16-.44-.11-1.39-.17-2.16-.17-.61,0-.94-.11-.94-.5s.39-.5,1.22-.5c2.94,0,6.44.17,7.77.17s4.83-.17,6.71-.17c.78,0,1.17.11,1.17.5s-.33.5-.78.5c-.56,0-.89.06-1.55.17-1.5.28-1.94,1.22-2.05,3.16-.11,1.78-.11,3.33-.11,11.76v2.44Z"/>
        <path class="cls-2" d="M58.49,236.04c-5.44-4.77-6.88-10.99-6.88-16.37,0-3.77,1.17-10.32,6.49-15.2,3.99-3.66,9.27-5.88,17.53-5.88,3.44,0,5.49.22,8.04.55,2.11.28,3.88.78,5.55.94.61.06.83.33.83.67,0,.44-.17,1.11-.28,3.05-.11,1.83-.06,4.88-.17,5.99-.05.83-.17,1.28-.67,1.28-.44,0-.55-.44-.55-1.22-.06-1.72-.78-3.66-2.16-5.1-1.83-1.94-6.16-3.44-11.26-3.44-4.83,0-7.99,1.22-10.43,3.44-4.05,3.72-5.1,8.99-5.1,14.37,0,13.2,10.04,19.75,17.48,19.75,4.94,0,7.93-.55,10.15-3.11.94-1.05,1.66-2.66,1.89-3.66.17-.89.28-1.11.72-1.11.39,0,.5.39.5.83,0,.67-.67,5.49-1.22,7.38-.28.94-.5,1.22-1.44,1.61-2.22.89-6.44,1.28-9.99,1.28-7.6,0-13.98-1.66-19.03-6.05Z"/>
        <path class="cls-2" d="M105.92,226.83c-.28,0-.39.11-.5.44l-3,7.93c-.55,1.39-.83,2.72-.83,3.38,0,1,.5,1.72,2.22,1.72h.83c.67,0,.83.11.83.44,0,.44-.33.55-.94.55-1.78,0-4.16-.17-5.88-.17-.61,0-3.66.17-6.55.17-.72,0-1.05-.11-1.05-.55,0-.33.22-.44.67-.44.5,0,1.28-.06,1.72-.11,2.55-.33,3.61-2.22,4.72-4.99l13.93-34.84c.67-1.61,1-2.22,1.55-2.22.5,0,.83.5,1.39,1.78,1.33,3.05,10.21,25.69,13.76,34.12,2.11,4.99,3.72,5.77,4.88,6.05.83.17,1.66.22,2.33.22.44,0,.72.06.72.44,0,.44-.5.55-2.55.55s-6.05,0-10.49-.11c-1-.06-1.66-.06-1.66-.44,0-.33.22-.44.78-.5.39-.11.78-.61.5-1.28l-4.44-11.76c-.11-.28-.28-.39-.55-.39h-12.37ZM117.24,224.06c.28,0,.33-.17.28-.33l-4.99-13.7c-.06-.22-.11-.5-.28-.5s-.28.28-.33.5l-5.1,13.65c-.05.22,0,.39.22.39h10.21Z"/>
        <path class="cls-2" d="M139.88,215.46c0-8.43,0-9.99-.11-11.76-.11-1.89-.55-2.77-2.39-3.16-.44-.11-1.39-.17-2.16-.17-.61,0-.94-.11-.94-.5s.39-.5,1.22-.5c2.94,0,6.44.17,8.1.17,1.33,0,4.83-.17,6.82-.17.83,0,1.22.11,1.22.5s-.33.5-.89.5c-.61,0-.94.06-1.61.17-1.5.28-1.94,1.22-2.05,3.16-.11,1.78-.11,3.33-.11,11.76v7.77c0,8.04,1.61,11.43,4.33,13.65,2.5,2.05,5.05,2.27,6.93,2.27,2.44,0,5.44-.78,7.66-3,3.05-3.05,3.22-8.04,3.22-13.76v-6.94c0-8.43,0-9.99-.11-11.76-.11-1.89-.55-2.77-2.39-3.16-.44-.11-1.39-.17-2-.17s-.94-.11-.94-.5.39-.5,1.17-.5c2.83,0,6.33.17,6.38.17.67,0,4.16-.17,6.33-.17.78,0,1.17.11,1.17.5s-.33.5-1,.5c-.61,0-.94.06-1.61.17-1.5.28-1.94,1.22-2.05,3.16-.11,1.78-.11,3.33-.11,11.76v5.94c0,6.16-.61,12.71-5.27,16.7-3.94,3.38-7.93,3.99-11.54,3.99-2.94,0-8.27-.17-12.32-3.83-2.83-2.55-4.94-6.66-4.94-14.7v-8.1Z"/>
        <path class="cls-2" d="M207,236.04c-5.44-4.77-6.88-10.99-6.88-16.37,0-3.77,1.17-10.32,6.49-15.2,3.99-3.66,9.26-5.88,17.53-5.88,3.44,0,5.49.22,8.04.55,2.11.28,3.88.78,5.55.94.61.06.83.33.83.67,0,.44-.17,1.11-.28,3.05-.11,1.83-.06,4.88-.17,5.99-.06.83-.17,1.28-.67,1.28-.44,0-.56-.44-.56-1.22-.05-1.72-.78-3.66-2.16-5.1-1.83-1.94-6.16-3.44-11.26-3.44-4.83,0-7.99,1.22-10.43,3.44-4.05,3.72-5.1,8.99-5.1,14.37,0,13.2,10.04,19.75,17.48,19.75,4.94,0,7.93-.55,10.15-3.11.94-1.05,1.66-2.66,1.89-3.66.17-.89.28-1.11.72-1.11.39,0,.5.39.5.83,0,.67-.67,5.49-1.22,7.38-.28.94-.5,1.22-1.44,1.61-2.22.89-6.44,1.28-9.99,1.28-7.6,0-13.98-1.66-19.03-6.05Z"/>
        <path class="cls-2" d="M248.17,215.46c0-8.43,0-9.99-.11-11.76-.11-1.89-.55-2.77-2.39-3.16-.44-.11-1.39-.17-2.16-.17-.61,0-.94-.11-.94-.5s.39-.5,1.22-.5c2.94,0,6.44.17,8.1.17,1.33,0,4.83-.17,6.82-.17.83,0,1.22.11,1.22.5s-.33.5-.89.5c-.61,0-.94.06-1.61.17-1.5.28-1.94,1.22-2.05,3.16-.11,1.78-.11,3.33-.11,11.76v7.77c0,8.04,1.61,11.43,4.33,13.65,2.5,2.05,5.05,2.27,6.93,2.27,2.44,0,5.44-.78,7.66-3,3.05-3.05,3.22-8.04,3.22-13.76v-6.94c0-8.43,0-9.99-.11-11.76-.11-1.89-.55-2.77-2.39-3.16-.44-.11-1.39-.17-2-.17s-.94-.11-.94-.5.39-.5,1.17-.5c2.83,0,6.33.17,6.38.17.67,0,4.16-.17,6.33-.17.78,0,1.17.11,1.17.5s-.33.5-1,.5c-.61,0-.94.06-1.61.17-1.5.28-1.94,1.22-2.05,3.16-.11,1.78-.11,3.33-.11,11.76v5.94c0,6.16-.61,12.71-5.27,16.7-3.94,3.38-7.93,3.99-11.54,3.99-2.94,0-8.27-.17-12.32-3.83-2.83-2.55-4.94-6.66-4.94-14.7v-8.1Z"/>
      </g>
      <g>
        <path class="cls-2" d="M28,269.56v-1.81c.59-.64,1.28-.96,2.07-.96.29,0,.56.03.81.09.25.06.69.22,1.33.47.64.26,1.07.39,1.3.39.26,0,.56-.08.9-.24.34-.16.68-.42,1-.76v1.88c-.21.22-.51.43-.9.63-.38.2-.78.29-1.19.29-.23,0-.46-.03-.68-.08-.22-.06-.57-.19-1.05-.4-.72-.31-1.28-.47-1.69-.47-.65,0-1.29.32-1.91.97Z"/>
        <path class="cls-2" d="M55.31,273.19h-2.25l-.89-2.32h-4.09l-.84,2.32h-2.19l3.99-10.23h2.18l4.1,10.23ZM51.51,269.14l-1.41-3.8-1.38,3.8h2.79Z"/>
        <path class="cls-2" d="M65.58,273.19v-10.23h7.01v1.73h-4.95v2.42h4.27v1.73h-4.27v4.35h-2.07Z"/>
        <path class="cls-2" d="M78.6,268.04l-1.78-.32c.2-.72.54-1.25,1.03-1.59s1.21-.52,2.18-.52c.88,0,1.53.1,1.95.31s.73.47.9.79c.17.32.26.9.26,1.76l-.02,2.29c0,.65.03,1.13.09,1.44.06.31.18.64.35.99h-1.94c-.05-.13-.11-.32-.19-.58-.03-.12-.06-.19-.07-.23-.33.33-.69.57-1.07.73-.38.16-.79.24-1.22.24-.76,0-1.36-.21-1.8-.62-.44-.41-.66-.94-.66-1.57,0-.42.1-.79.3-1.12.2-.33.48-.58.84-.75.36-.17.88-.33,1.56-.46.92-.17,1.55-.33,1.91-.48v-.2c0-.38-.09-.65-.28-.81s-.54-.24-1.05-.24c-.35,0-.62.07-.82.21s-.35.38-.47.72ZM81.23,269.63c-.25.08-.65.18-1.19.3-.54.12-.9.23-1.07.34-.26.18-.38.41-.38.69s.1.51.31.71c.2.2.46.3.78.3.35,0,.69-.12,1.01-.35.24-.18.39-.39.47-.65.05-.17.08-.49.08-.96v-.39Z"/>
        <path class="cls-2" d="M87.8,265.77h1.81v1.01c.65-.79,1.42-1.18,2.31-1.18.47,0,.89.1,1.24.29.35.2.63.49.86.89.33-.4.68-.69,1.05-.89.38-.2.78-.29,1.21-.29.54,0,1,.11,1.38.33s.66.55.84.97c.14.32.2.83.2,1.54v4.74h-1.96v-4.24c0-.74-.07-1.21-.2-1.42-.18-.28-.46-.42-.84-.42-.28,0-.53.08-.78.25s-.42.41-.52.74c-.11.32-.16.83-.16,1.53v3.56h-1.96v-4.06c0-.72-.04-1.19-.11-1.4-.07-.21-.18-.37-.32-.47-.15-.1-.35-.15-.6-.15-.3,0-.58.08-.82.24-.24.16-.42.4-.52.71-.1.31-.16.82-.16,1.53v3.6h-1.96v-7.41Z"/>
        <path class="cls-2" d="M103.51,264.77v-1.81h1.96v1.81h-1.96ZM103.51,273.19v-7.41h1.96v7.41h-1.96Z"/>
        <path class="cls-2" d="M110.34,273.19v-10.23h1.96v10.23h-1.96Z"/>
        <path class="cls-2" d="M116.25,265.77h2.09l1.77,5.26,1.73-5.26h2.03l-2.62,7.13-.47,1.29c-.17.43-.34.76-.49.99s-.33.41-.54.56c-.2.14-.45.25-.75.33-.3.08-.63.12-1,.12s-.75-.04-1.11-.12l-.17-1.54c.31.06.58.09.83.09.46,0,.79-.13,1.01-.4s.39-.61.5-1.02l-2.82-7.43Z"/>
        <path class="cls-2" d="M134.41,268.13c0-1.04.16-1.92.47-2.62.23-.52.55-.99.95-1.4s.84-.72,1.32-.92c.64-.27,1.37-.4,2.21-.4,1.51,0,2.71.47,3.62,1.4s1.36,2.24,1.36,3.9-.45,2.94-1.35,3.88c-.9.93-2.1,1.4-3.6,1.4s-2.73-.46-3.63-1.39c-.9-.93-1.35-2.21-1.35-3.84ZM136.54,268.06c0,1.16.27,2.04.8,2.63.54.6,1.21.9,2.04.9s1.5-.3,2.03-.89.79-1.48.79-2.67-.26-2.05-.77-2.62c-.51-.58-1.2-.87-2.05-.87s-1.54.29-2.06.88c-.52.58-.78,1.46-.78,2.64Z"/>
        <path class="cls-2" d="M147.93,265.77h1.09v-.56c0-.62.07-1.09.2-1.4s.38-.56.73-.75c.36-.19.81-.29,1.35-.29s1.11.08,1.64.25l-.27,1.37c-.31-.07-.61-.11-.9-.11s-.49.07-.61.2c-.12.13-.18.39-.18.76v.52h1.47v1.54h-1.47v5.87h-1.96v-5.87h-1.09v-1.54Z"/>
        <path class="cls-2" d="M163.26,262.96h4.09c.81,0,1.41.03,1.81.1.4.07.75.21,1.07.42.31.21.58.5.79.85.21.36.31.76.31,1.2,0,.48-.13.92-.39,1.32-.26.4-.61.7-1.05.9.62.18,1.1.49,1.44.93.33.44.5.95.5,1.54,0,.47-.11.92-.32,1.36-.22.44-.51.79-.89,1.05-.37.26-.84.42-1.38.48-.34.04-1.17.06-2.49.07h-3.48v-10.23ZM165.33,264.66v2.37h1.35c.8,0,1.3-.01,1.5-.04.35-.04.63-.16.83-.37.2-.2.3-.47.3-.8s-.09-.57-.26-.77c-.17-.2-.43-.32-.78-.36-.21-.02-.79-.03-1.77-.03h-1.19ZM165.33,268.73v2.74h1.91c.74,0,1.22-.02,1.42-.06.31-.06.56-.19.75-.41.19-.22.29-.51.29-.87,0-.31-.07-.57-.22-.78-.15-.21-.36-.37-.65-.47-.28-.1-.89-.15-1.83-.15h-1.67Z"/>
        <path class="cls-2" d="M180.71,270.83l1.95.33c-.25.72-.65,1.26-1.19,1.64-.54.38-1.22.56-2.04.56-1.29,0-2.24-.42-2.86-1.26-.49-.67-.73-1.53-.73-2.55,0-1.23.32-2.19.96-2.89.64-.7,1.45-1.04,2.44-1.04,1.1,0,1.97.36,2.61,1.09s.94,1.84.91,3.35h-4.91c.01.58.17,1.03.47,1.36s.68.48,1.13.48c.31,0,.57-.08.77-.25s.37-.44.47-.81ZM180.82,268.85c-.01-.57-.16-1-.44-1.29s-.62-.44-1.02-.44c-.43,0-.78.16-1.06.47-.28.31-.42.74-.41,1.27h2.93Z"/>
        <path class="cls-2" d="M187.23,273.19v-10.23h1.96v10.23h-1.96Z"/>
        <path class="cls-2" d="M194.06,264.77v-1.81h1.96v1.81h-1.96ZM194.06,273.19v-7.41h1.96v7.41h-1.96Z"/>
        <path class="cls-2" d="M205.18,270.83l1.95.33c-.25.72-.65,1.26-1.19,1.64-.54.38-1.22.56-2.04.56-1.29,0-2.24-.42-2.86-1.26-.49-.67-.73-1.53-.73-2.55,0-1.23.32-2.19.96-2.89.64-.7,1.45-1.04,2.44-1.04,1.1,0,1.97.36,2.61,1.09s.94,1.84.91,3.35h-4.91c.01.58.17,1.03.47,1.36s.68.48,1.13.48c.31,0,.57-.08.77-.25s.37-.44.47-.81ZM205.29,268.85c-.01-.57-.16-1-.44-1.29s-.62-.44-1.02-.44c-.43,0-.78.16-1.06.47-.28.31-.42.74-.41,1.27h2.93Z"/>
        <path class="cls-2" d="M213.73,273.19l-2.99-7.41h2.06l1.4,3.78.41,1.26c.11-.32.17-.53.2-.63.07-.21.13-.42.21-.63l1.41-3.78h2.02l-2.95,7.41h-1.77Z"/>
        <path class="cls-2" d="M226.8,270.83l1.95.33c-.25.72-.65,1.26-1.19,1.64-.54.38-1.22.56-2.04.56-1.29,0-2.24-.42-2.86-1.26-.49-.67-.73-1.53-.73-2.55,0-1.23.32-2.19.96-2.89.64-.7,1.45-1.04,2.44-1.04,1.1,0,1.97.36,2.61,1.09s.94,1.84.91,3.35h-4.91c.01.58.17,1.03.47,1.36s.68.48,1.13.48c.31,0,.57-.08.77-.25s.37-.44.47-.81ZM226.91,268.85c-.01-.57-.16-1-.44-1.29s-.62-.44-1.02-.44c-.43,0-.78.16-1.06.47-.28.31-.42.74-.41,1.27h2.93Z"/>
        <path class="cls-2" d="M235.19,273.19h-1.96v-7.41h1.82v1.05c.31-.5.59-.83.84-.98s.53-.24.85-.24c.45,0,.88.12,1.29.37l-.61,1.71c-.33-.21-.64-.32-.92-.32s-.51.08-.7.23c-.19.15-.34.42-.45.82s-.16,1.22-.16,2.48v2.29Z"/>
        <path class="cls-2" d="M241.04,271.07l1.97-.3c.08.38.25.67.51.87s.61.3,1.08.3c.51,0,.89-.09,1.14-.28.17-.13.26-.3.26-.52,0-.15-.05-.27-.14-.37-.1-.09-.32-.18-.66-.26-1.58-.35-2.58-.67-3.01-.96-.59-.4-.88-.96-.88-1.67,0-.64.25-1.18.76-1.62.51-.44,1.29-.66,2.36-.66s1.77.17,2.26.5.83.82,1.02,1.47l-1.85.34c-.08-.29-.23-.51-.45-.66-.22-.15-.54-.23-.95-.23-.52,0-.89.07-1.11.22-.15.1-.22.24-.22.4,0,.14.07.26.2.36.18.13.79.31,1.83.55,1.04.24,1.77.53,2.19.87.41.35.61.84.61,1.46,0,.68-.28,1.26-.85,1.75-.57.49-1.41.73-2.52.73-1.01,0-1.81-.2-2.4-.61-.59-.41-.97-.97-1.16-1.67Z"/>
        <path class="cls-2" d="M258.81,269.56v-1.81c.59-.64,1.28-.96,2.07-.96.29,0,.56.03.81.09.25.06.69.22,1.33.47.64.26,1.07.39,1.3.39.26,0,.56-.08.9-.24.34-.16.68-.42,1-.76v1.88c-.21.22-.51.43-.9.63-.38.2-.78.29-1.19.29-.23,0-.46-.03-.68-.08s-.57-.19-1.05-.4c-.72-.31-1.28-.47-1.69-.47-.65,0-1.29.32-1.91.97Z"/>
      </g>
      <rect class="cls-2" y="187.74" width="294.23" height="2.48"/>
      <rect class="cls-2" y="252.66" width="294.23" height="2.48"/>
    </g>
  </g>
</svg>